Coordinates
version=1
nRows=5
nColumns=40
inDegrees=yes

Units are S.I. units (second, meters, Newtons, ...)
If the header above contains a line with 'inDegrees', this indicates whether rotational values are in degrees (yes) or radians (no).

endheader
time	pelvis_tilt	pelvis_list	pelvis_rotation	pelvis_tx	pelvis_ty	pelvis_tz	hip_flexion_r	hip_adduction_r	hip_rotation_r	knee_angle_r	knee_angle_r_beta	ankle_angle_r	subtalar_angle_r	mtp_angle_r	hip_flexion_l	hip_adduction_l	hip_rotation_l	knee_angle_l	knee_angle_l_beta	ankle_angle_l	subtalar_angle_l	mtp_angle_l	lumbar_extension	lumbar_bending	lumbar_rotation	arm_flex_r	arm_add_r	arm_rot_r	elbow_flex_r	pro_sup_r	wrist_flex_r	wrist_dev_r	arm_flex_l	arm_add_l	arm_rot_l	elbow_flex_l	pro_sup_l	wrist_flex_l	wrist_dev_l
      3.00000000	      5.99418025	     -7.03423561	     -2.71493500	     -0.33081544	      0.95160883	     -1.05586551	     43.64893074	      2.41439718	     -7.72697636	     16.16478304	      0.28212869	    -10.76296929	      0.00000000	      0.00000000	     26.46986619	     -6.69884854	     -7.78152103	     60.75310104	      1.06034164	     14.79671885	      0.00000000	      0.00000000	    -19.75505391	      3.13821164	      5.92630776	     89.07677636	    -24.12055383	     44.19436729	     41.34215247	     83.12881821	      0.00000000	      0.00000000	     89.25427120	    -23.96968350	     53.80220636	     36.26454630	     81.49862734	      0.00000000	      0.00000000
      3.00500000	      5.99278989	     -7.05082694	     -2.68853367	     -0.33101639	      0.95040963	     -1.05591779	     43.67449530	      2.41986438	     -7.74429624	     16.18313746	      0.28244903	    -10.73266053	      0.00000000	      0.00000000	     26.63223068	     -6.74009710	     -7.78104800	     61.04848384	      1.06549705	     14.94380577	      0.00000000	      0.00000000	    -19.80104869	      3.16181800	      5.89538966	     89.10725523	    -24.07773630	     44.13175212	     41.29715589	     82.98156614	      0.00000000	      0.00000000	     89.28253672	    -23.91297039	     53.72617009	     36.20957137	     81.71261406	      0.00000000	      0.00000000
      3.01000000	      5.92406893	     -7.02096980	     -2.66190573	     -0.33138045	      0.94915438	     -1.05600994	     43.78476822	      2.38138537	     -7.75696592	     16.19560214	      0.28266658	    -10.77186447	      0.00000000	      0.00000000	     26.87524174	     -6.70647142	     -7.73315009	     61.32842486	      1.07038294	     15.06354347	      0.00000000	      0.00000000	    -19.77652539	      3.15739358	      5.89759606	     89.14625052	    -24.05670037	     44.10518574	     41.23001231	     83.02535362	      0.00000000	      0.00000000	     89.31442863	    -23.80158839	     53.65997428	     36.12667815	     81.66336837	      0.00000000	      0.00000000
      3.01500000	      5.91482350	     -7.03434332	     -2.66301699	     -0.33176659	      0.94793411	     -1.05598317	     43.82972264	      2.41153824	     -7.71112863	     16.20306165	      0.28279677	    -10.94662806	      0.00000000	      0.00000000	     27.04872404	     -6.73884550	     -7.73387608	     61.61028891	      1.07530239	     15.20180370	      0.00000000	      0.00000000	    -19.82252504	      3.17335091	      5.86246440	     89.18018837	    -23.95219645	     44.02094887	     41.14678821	     83.09174078	      0.00000000	      0.00000000	     89.34220586	    -23.78506988	     53.59950154	     36.06661684	     81.56363020	      0.00000000	      0.00000000
      3.02000000	      5.91048229	     -7.01113378	     -2.63212504	     -0.33201802	      0.94681977	     -1.05601049	     43.87002070	      2.38889527	     -7.74523415	     16.23349506	      0.28332794	    -10.80847730	      0.00000000	      0.00000000	     27.20369835	     -6.71375173	     -7.70088649	     61.87599344	      1.07993981	     15.33314829	      0.00000000	      0.00000000	    -19.86423566	      3.15858388	      5.82215030	     89.18065191	    -23.93806490	     43.88258755	     41.18105653	     83.07196393	      0.00000000	      0.00000000	     89.38377303	    -23.72114784	     53.58845758	     35.98390014	     81.64558578	      0.00000000	      0.00000000
